Coordinates
version=1
nRows=14
nColumns=42
inDegrees=yes

Units are S.I. units (second, meters, Newtons, ...)
If the header above contains a line with 'inDegrees', this indicates whether rotational values are in degrees (yes) or radians (no).

endheader
time	pelvis_tilt	pelvis_list	pelvis_rotation	pelvis_tx	pelvis_ty	pelvis_tz	hip_flexion_r	hip_adduction_r	hip_rotation_r	knee_angle_r	knee_adduction_r	knee_angle_r_beta	ankle_angle_r	subtalar_angle_r	mtp_angle_r	hip_flexion_l	hip_adduction_l	hip_rotation_l	knee_angle_l	knee_adduction_l	knee_angle_l_beta	ankle_angle_l	subtalar_angle_l	mtp_angle_l	lumbar_extension	lumbar_bending	lumbar_rotation	arm_flex_r	arm_add_r	arm_rot_r	elbow_flex_r	pro_sup_r	wrist_flex_r	wrist_dev_r	arm_flex_l	arm_add_l	arm_rot_l	elbow_flex_l	pro_sup_l	wrist_flex_l	wrist_dev_l
      0.50000000	      0.88790608	      4.25394444	     11.20303875	     -0.06121081	      0.89204506	      0.37883666	     19.87825812	    -17.90996477	    -18.15594248	     62.45185591	      3.05437653	      1.08999051	      9.07496216	     -7.73693619	     -9.40255410	      4.34262959	     -1.18907306	     -4.00342166	      1.67400611	      5.54407551	      0.02921692	      5.59190019	     32.41213551	     -9.40255410	    -16.57396174	     -6.52866545	     -2.36416919	     -9.52262468	    -21.54290929	    -21.16215983	     96.43656646	     90.00000001	      0.00000000	      0.00000000	     -0.70786628	    -25.07397752	     15.31011232	     87.99479848	     90.00000001	      0.00000000	      0.00000000
      0.51000000	      0.54489653	      4.33481001	     11.23390906	     -0.05863751	      0.89172660	      0.37938662	     21.13818189	    -18.03997833	    -18.13273832	     59.92136013	      2.84100898	      1.04582503	     10.36162636	     -7.81187608	     -9.36226676	      4.49302162	     -1.11242869	     -4.04139694	      1.62478470	      5.53981181	      0.02835784	      5.72045671	     32.37978185	     -9.36226676	    -16.59837303	     -6.43391893	     -2.39038470	     -9.53517791	    -20.90427319	    -21.03476466	     94.53416140	     90.00000001	      0.00000000	      0.00000000	      0.07594110	    -25.58098930	     15.62409214	     87.56894366	     90.00000001	      0.00000000	      0.00000000
      0.52000000	      0.22459326	      4.33840675	     11.24622455	     -0.05586707	      0.89142617	      0.38015073	     22.11018352	    -17.94630569	    -18.10372658	     56.84529898	      2.75069458	      0.99213763	     11.50698536	     -7.48716860	     -9.31832874	      4.64130095	     -1.19222285	     -4.07343102	      1.62802329	      5.64711590	      0.02841437	      5.85800225	     32.40779187	     -9.31832874	    -16.58621350	     -6.26710694	     -2.31607571	     -9.53681759	    -20.30980358	    -20.92152617	     92.55977011	     90.00000001	      0.00000000	      0.00000000	      0.88712202	    -26.10133061	     16.06847230	     87.08624180	     90.00000001	      0.00000000	      0.00000000
      0.53000000	      0.48436139	      4.10196490	     11.24171182	     -0.05247095	      0.89193819	      0.38132943	     21.98463220	    -17.23713207	    -18.81547569	     52.97611958	      2.23801880	      0.92460771	     12.51827406	     -6.10296586	     -9.22631480	      4.17427636	     -1.90395824	     -4.49389195	      1.66423968	      6.16449305	      0.02904646	      6.07400490	     32.97795552	     -9.22631480	    -17.10029126	     -5.73820207	     -2.06089814	     -9.58910004	    -19.79803779	    -20.82292966	     90.78398159	     90.00000001	      0.00000000	      0.00000000	      1.84101671	    -26.53402568	     16.63198043	     86.58268773	     90.00000001	      0.00000000	      0.00000000
      0.54000000	      0.48341593	      4.09387166	     11.26140222	     -0.04903768	      0.89201528	      0.38241351	     22.00629548	    -16.80555918	    -19.35564558	     49.07113934	      1.84964426	      0.85645295	     13.02015180	     -4.49660330	     -9.10384848	      3.92063335	     -2.14195690	     -4.61770672	      1.64700324	      6.34549747	      0.02874563	      6.28173697	     33.30776005	     -9.10384848	    -17.31485543	     -5.51873533	     -1.95542048	     -9.43551318	    -19.30730576	    -20.47993356	     88.75276771	     90.00000001	      0.00000000	      0.00000000	      2.56838578	    -26.91491064	     16.87043388	     86.24634551	     90.00000001	      0.00000000	      0.00000000
      0.55000000	      0.09678082	      4.23039870	     11.31292891	     -0.04580112	      0.89144628	      0.38350952	     22.32562923	    -16.60131271	    -19.02917344	     45.25182264	      2.13737626	      0.78979330	     13.06749649	     -3.53644796	     -9.05165908	      4.08703843	     -2.06519951	     -4.49203554	      1.62296682	      6.39310859	      0.02832611	      6.52023780	     33.19765135	     -9.05165908	    -17.11167712	     -5.54340197	     -1.87934708	     -9.29331363	    -18.86830541	    -20.04225353	     86.66342204	     90.00000001	      0.00000000	      0.00000000	      3.23032870	    -27.33242882	     17.15057634	     85.98536336	     90.00000001	      0.00000000	      0.00000000
      0.56000000	      0.12761534	      4.27978671	     11.43068249	     -0.04217873	      0.89145308	      0.38475693	     21.86125059	    -16.08823302	    -19.12556972	     41.23666322	      2.14274081	      0.71971555	     12.77520255	     -2.25424147	     -8.97754337	      3.79534213	     -2.24586324	     -4.36325400	      1.59768274	      6.55717263	      0.02788482	      6.76181601	     33.22501660	     -8.97754337	    -17.30558744	     -5.37899594	     -1.80791197	     -9.09023100	    -18.50931352	    -19.50801953	     84.69236160	     90.00000001	      0.00000000	      0.00000000	      3.91374616	    -27.65495238	     17.31706451	     85.83937621	     90.00000001	      0.00000000	      0.00000000
      0.57000000	     -0.06413721	      4.48881783	     11.66423443	     -0.03856503	      0.89106799	      0.38591491	     21.55458068	    -15.86626834	    -18.96300651	     37.64228557	      2.35044854	      0.65698182	     12.30393563	     -1.10337782	     -8.92292181	      3.75175202	     -2.11156881	     -4.09434205	      1.61027502	      6.53641362	      0.02810460	      7.01099195	     33.19296790	     -8.92292181	    -17.24398873	     -5.42848433	     -1.87680549	     -8.86038705	    -18.13276377	    -18.90100150	     82.70945930	     90.00000001	      0.00000000	      0.00000000	      4.53004045	    -28.03325680	     17.48619825	     85.74999241	     90.00000001	      0.00000000	      0.00000000
      0.58000000	     -0.53016097	      4.88872458	     11.93816349	     -0.03503681	      0.89022162	      0.38702588	     21.59330364	    -15.93438056	    -18.58324881	     34.65261313	      2.52261307	      0.60480219	     11.68583081	     -0.19033911	     -8.90073634	      4.03002605	     -1.58031292	     -3.81942379	      1.72796592	      6.25639215	      0.03015869	      7.18057926	     33.10828518	     -8.90073634	    -16.88900631	     -5.73285928	     -1.97120679	     -8.73365588	    -17.71921450	    -18.38344853	     81.04437750	     90.00000001	      0.00000000	      0.00000000	      5.10804732	    -28.41355264	     17.66177873	     85.79376715	     90.00000001	      0.00000000	      0.00000000
      0.59000000	     -0.18049683	      4.96580457	     12.49867279	     -0.03103377	      0.89070697	      0.38810743	     20.30516919	    -15.52410026	    -19.01233981	     31.63142741	      2.58862187	      0.55207256	     11.10294244	      0.83261207	     -8.84469376	      3.41612010	     -1.78119326	     -3.15431420	      1.67741256	      6.40985971	      0.02927637	      7.48451608	     33.05566324	     -8.84469376	    -17.33668257	     -5.45972149	     -2.30757792	     -8.35430355	    -17.49767802	    -17.55654926	     79.08372460	     90.00000001	      0.00000000	      0.00000000	      5.71803349	    -28.65035617	     17.64835726	     85.82730300	     90.00000001	      0.00000000	      0.00000000
      0.60000000	     -0.49291641	      5.31218118	     12.99254025	     -0.02738904	      0.89023558	      0.38918309	     20.07691583	    -15.62100401	    -18.87115222	     29.68603681	      2.69246530	      0.51811908	     10.68886669	      1.52699021	     -8.82456742	      3.57937211	     -1.31512243	     -2.67149132	      1.84392363	      6.09857135	      0.03218254	      7.65858043	     33.04492396	     -8.82456742	    -17.09851407	     -5.65074749	     -2.55546464	     -8.15654134	    -17.13580598	    -17.01841075	     77.45455256	     90.00000001	      0.00000000	      0.00000000	      6.32652349	    -28.93824344	     17.83156958	     85.90002118	     90.00000001	      0.00000000	      0.00000000
      0.61000000	     -0.21791337	      5.45636681	     13.77566989	     -0.02340540	      0.89077862	      0.39012428	     18.93547134	    -15.44901381	    -19.62274490	     27.95778256	      2.58494332	      0.48795536	     10.42978307	      2.31596537	     -8.76789771	      3.12700717	     -1.31588945	     -1.74292457	      1.91799584	      6.03248543	      0.03347534	      7.96650767	     32.78659046	     -8.76789771	    -17.44160635	     -5.41895898	     -3.07488537	     -7.86463757	    -16.92555900	    -16.24015607	     75.82682734	     90.00000001	      0.00000000	      0.00000000	      6.86657944	    -29.07926259	     17.71527922	     86.06383144	     90.00000001	      0.00000000	      0.00000000
      0.62000000	     -0.39836004	      5.71577482	     14.38891665	     -0.01964094	      0.89073590	      0.39127528	     18.59391081	    -15.52393752	    -19.75177080	     27.07207691	      2.55465314	      0.47249688	     10.40803200	      2.59979392	     -8.75212305	      3.21348925	     -0.97120061	     -1.22115947	      2.17364121	      5.72318631	      0.03793720	      8.12281722	     32.77364671	     -8.75212305	    -17.29338784	     -5.48753721	     -3.36267781	     -7.72010120	    -16.60346512	    -15.79901280	     74.41119270	     90.00000001	      0.00000000	      0.00000000	      7.48545998	    -29.21416124	     17.84100194	     86.15718125	     90.00000001	      0.00000000	      0.00000000
      0.63000000	     -0.46301947	      5.91129692	     14.96916146	     -0.01587495	      0.89093801	      0.39266383	     18.21407378	    -15.55059726	    -19.98967716	     26.68463375	      2.49317806	      0.46573472	     10.50706369	      2.66527688	     -8.74219529	      3.21879424	     -0.80542428	     -0.69458329	      2.49602120	      5.56964622	      0.04356379	      8.26738388	     32.73084252	     -8.74219529	    -17.27900206	     -5.49226177	     -3.50213076	     -7.74404005	    -16.35370084	    -15.41910722	     73.29392148	     90.00000001	      0.00000000	      0.00000000	      8.16823018	    -29.14686315	     17.78348477	     86.39391200	     90.00000001	      0.00000000	      0.00000000
